<?xml version="1.0" encoding="UTF-8" standalone="no"?><!DOCTYPE svg PUBLIC "-//W3C//DTD SVG 1.1//EN" "http://www.w3.org/Graphics/SVG/1.1/DTD/svg11.dtd"><svg width="100%" height="100%" viewBox="0 0 513 512" version="1.1" xmlns="http://www.w3.org/2000/svg" xmlns:xlink="http://www.w3.org/1999/xlink" xml:space="preserve" xmlns:serif="http://www.serif.com/" style="fill-rule:evenodd;clip-rule:evenodd;stroke-linejoin:round;stroke-miterlimit:1.41421;"><rect id="logo_color_borderless" x="0.28" y="0" width="512" height="512" style="fill:none;"/><clipPath id="_clip1"><rect x="0.28" y="0" width="512" height="512"/></clipPath><g clip-path="url(#_clip1)"><rect x="0.28" y="0" width="512.898" height="512" style="fill:#135aa0;"/><g><g transform="matrix(0.983845,0,0,0.983845,-1160.08,-312.729)"><path d="M1285.71,663.37l0,-170.605l12.255,0l0,159.552l101.882,0l0,11.053l-114.137,0Z" style="fill:#fff;fill-rule:nonzero;"/><path d="M1546.66,663.37l0,-89.868l-28.595,63.196l-24.99,0l-28.594,-63.196l0,89.868l-46.856,0l0,-170.605l51.181,0l36.764,80.257l37.005,-80.257l50.941,0l0,170.605l-46.856,0Z" style="fill:#fff;fill-rule:nonzero;"/></g></g></g></svg>